<svg viewBox="0 0 100 100" xmlns="http://www.w3.org/2000/svg">
  <!-- Blue circle background only -->
  <circle cx="50" cy="50" r="45" fill="#3B82F6" />
  
  <!-- WWW text - right side up -->
  <path d="M28 47 L32 57 L34 47 L36 57 L40 47 M43 47 L47 57 L49 47 L51 57 L55 47 M58 47 L62 57 L64 47 L66 57 L70 47" stroke="white" stroke-width="2.5" fill="none" stroke-linecap="round" stroke-linejoin="round" />
  
  <!-- Orbital rings -->
  <ellipse cx="50" cy="50" rx="28" ry="15" fill="none" stroke="white" stroke-width="1.5" transform="rotate(10, 50, 50)" />
  <ellipse cx="50" cy="50" rx="28" ry="15" fill="none" stroke="white" stroke-width="1.5" transform="rotate(70, 50, 50)" />
  
  <!-- Connection dots -->
  <circle cx="32" cy="40" r="2" fill="white" />
  <circle cx="68" cy="45" r="2" fill="white" />
  <circle cx="50" cy="70" r="2" fill="white" />
  <circle cx="60" cy="30" r="2" fill="white" />
  <circle cx="38" cy="60" r="2" fill="white" />
</svg>
